# xmcd
#
# Track frame offsets: 
#        150
#        18125
#        30855
#        44813
#        56885
#        75924
#
# Disc length: 1186 seconds
#
# Revision: 0
# Processed by: cddbd v1.5.2PL0 Copyright (c) Steve Scherf et al.
# Submitted via: ExactAudioCopyFreeDBPlugin 1.0
#
DISCID=3c04a006
DTITLE=Strings, Billy - Billy Strings EP
DYEAR=2016
DGENRE=Bluegrass
TTITLE0=Slow Train
TTITLE1=Thurst Mutilator
TTITLE2=Dos Banjos
TTITLE3=Black Mountain Rag
TTITLE4=Red Rocking Chair
TTITLE5=Dust in a Baggie
EXTD=
EXTT0=
EXTT1=
EXTT2=
EXTT3=
EXTT4=
EXTT5=
PLAYORDER=
